# xmcd
#
# Track frame offsets: 
#        150
#        42537
#        82999
#        114326
#        173536
#        202235
#        244349
#        273977
#
# Disc length: 3969 seconds
#
# Revision: 0
# Processed by: cddbd v1.5.2PL0 Copyright (c) Steve Scherf et al.
# Submitted via: ExactAudioCopy v0.99pb4
#
DISCID=6a0f7f08
DTITLE=Brian Forest - Big Bottom
DYEAR=2006
DGENRE=Jazz
TTITLE0=Interpobic Fibrocartilage
TTITLE1=Coccyx
TTITLE2=Ischium
TTITLE3=Cluteus Maximus
TTITLE4=Sacrum
TTITLE5=Ischial Tuberosity
TTITLE6=Gluteal Fold
TTITLE7=Gluteus Minimus
EXTD=
EXTT0=
EXTT1=
EXTT2=
EXTT3=
EXTT4=
EXTT5=
EXTT6=
EXTT7=
PLAYORDER=
